<svg xmlns="http://www.w3.org/2000/svg" version="1.0" width="9000.000000pt" height="9000.000000pt" viewBox="0 0 3873.000000 3873.000000" preserveAspectRatio="xMidYMid meet" style="clip-path: inset(0 0 0 0 round 50%);">
  <g transform="translate(0.000000,3873.000000) scale(0.100000,-0.100000)" fill="#35d0f6" stroke="none">
  <path d="M0 19370 l0 -19360 19360 0 19360 0 0 19360 0 19360 -19360 0 -19360 0 0 -19360z m16500 13897 c-8 -8 -69 -58 -135 -113 -604 -501 -1219 -1159 -1696 -1815 -776 -1070 -1324 -2233 -1648 -3499 -161 -628 -250 -1208 -302 -1950 -15 -213 -15 -956 0 -1170 61 -884 194 -1627 432 -2405 695 -2273 2202 -4271 4214 -5587 1415 -926 3010 -1479 4695 -1627 311 -28 343 -29 705 -37 1600 -34 3205 319 4654 1022 1031 501 1960 1163 2771 1974 118 118 269 275 334 348 66 73 121 131 123 129 3 -4 -37 -105 -137 -336 -344 -803 -821 -1618 -1364 -2331 -909 -1194 -2031 -2184 -3336 -2942 -143 -83 -429 -237 -570 -308 -69 -34 -133 -72 -142 -83 -45 -56 -7 -150 63 -161 19 -3 234 -10 479 -16 245 -6 524 -13 620 -16 96 -2 416 -11 710 -19 1604 -45 2898 -95 3400 -130 313 -23 360 -27 360 -35 0 -4 -12 -5 -27 -3 -22 4 -25 2 -13 -6 8 -6 32 -11 53 -11 32 0 37 -3 36 -22 -1 -16 -3 -18 -6 -6 -2 9 -13 16 -24 15 -19 -1 -28 -17 -9 -17 6 0 10 -5 10 -11 0 -5 -4 -7 -10 -4 -6 3 -7 -1 -4 -9 3 -9 1 -16 -5 -16 -6 0 -11 -6 -11 -13 0 -8 -10 -13 -22 -13 -17 1 -23 -4 -22 -20 0 -16 -5 -20 -23 -18 -13 1 -21 -2 -17 -7 3 -5 20 -10 37 -10 30 -2 31 -2 4 -6 -15 -2 -41 3 -59 11 -17 9 -34 14 -36 11 -3 -3 0 -5 7 -5 7 0 9 -4 6 -10 -3 -6 4 -10 16 -10 51 0 7 -10 -62 -14 -41 -3 -82 -8 -91 -11 -10 -4 -36 -5 -58 -3 -22 2 -40 1 -40 -2 0 -7 21 -6 -505 -29 -606 -27 -867 -37 -1550 -61 -313 -10 -640 -22 -725 -25 -85 -3 -218 -8 -295 -10 -388 -14 -1210 -48 -1425 -60 -774 -43 -1180 -101 -1180 -169 0 -83 327 -163 960 -235 329 -37 1502 -138 2055 -177 44 -3 96 -7 115 -9 19 -2 71 -7 115 -10 162 -13 543 -57 655 -76 158 -26 220 -47 220 -71 0 -44 -212 -104 -452 -127 -185 -18 -204 -20 -408 -36 -294 -22 -669 -43 -1095 -60 -225 -9 -1080 -44 -1330 -55 -873 -37 -1472 -103 -1620 -177 -78 -40 -85 -77 -25 -135 79 -75 333 -175 756 -297 202 -58 484 -155 553 -191 72 -36 131 -85 131 -109 0 -59 -180 -108 -500 -136 -36 -3 -85 -8 -110 -10 -25 -3 -90 -7 -145 -10 -55 -3 -125 -8 -155 -10 -99 -9 -657 -34 -1000 -45 -184 -6 -558 -17 -830 -25 -1556 -47 -2066 -82 -2338 -161 -54 -16 -112 -56 -112 -78 0 -16 47 -60 87 -80 154 -78 885 -168 1628 -201 72 -3 159 -8 195 -10 36 -3 407 -23 825 -45 643 -34 1085 -60 1430 -85 39 -3 104 -7 145 -10 41 -2 134 -10 205 -17 105 -10 122 -14 90 -19 -149 -25 -214 -43 -203 -56 8 -10 0 -13 -43 -14 -46 -1 -49 -3 -24 -9 28 -7 27 -8 -12 -9 -24 0 -43 -5 -43 -11 0 -6 -30 -10 -70 -10 -40 0 -70 -4 -70 -10 0 -5 16 -10 37 -10 44 0 37 -12 -9 -15 -18 -1 -57 -9 -87 -17 -30 -9 -60 -14 -67 -11 -7 3 -27 -3 -43 -13 -24 -14 -33 -16 -43 -6 -9 9 -7 12 10 12 12 0 22 5 22 10 0 13 -47 13 -55 0 -3 -5 -31 -10 -60 -10 -44 0 -53 -3 -49 -15 4 -10 0 -15 -12 -15 -11 0 -27 -7 -37 -14 -13 -10 -28 -11 -59 -4 -25 5 -44 5 -47 0 -3 -6 -13 -12 -21 -15 -8 -2 -3 -3 13 -1 15 2 27 -1 27 -6 0 -6 -38 -10 -89 -10 -59 0 -91 -4 -93 -12 -4 -10 -37 -14 -161 -17 -39 -1 -50 -5 -54 -20 -6 -22 -79 -34 -163 -25 -51 6 -54 5 -35 -10 19 -14 16 -15 -41 -16 -102 0 -184 -12 -184 -25 0 -7 -15 -16 -32 -20 -46 -10 -208 -12 -208 -3 0 4 -9 8 -20 8 -31 0 -24 -17 10 -24 48 -9 35 -24 -16 -18 -33 3 -49 1 -55 -9 -6 -11 -11 -11 -21 -1 -9 9 -9 12 5 12 9 0 17 5 17 11 0 7 -10 9 -27 5 -16 -3 -72 -9 -127 -13 -84 -5 -99 -9 -104 -25 -4 -16 -16 -18 -127 -18 -89 0 -125 -3 -128 -12 -4 -10 -8 -10 -14 -2 -5 8 -27 10 -63 6 l-55 -7 45 -6 c25 -4 5 -5 -43 -2 -78 5 -90 3 -103 -13 -14 -18 -14 -18 -28 -1 -12 15 -18 17 -35 7 -12 -6 -19 -15 -16 -21 4 -5 -3 -9 -14 -9 -12 0 -20 6 -18 12 3 16 -40 23 -57 9 -7 -6 -42 -13 -78 -15 -35 -3 -92 -12 -126 -20 -44 -12 -86 -15 -144 -11 -51 3 -75 2 -63 -3 l20 -9 -20 -5 c-11 -3 -260 -6 -553 -8 -406 -1 -537 1 -548 11 -11 9 -59 10 -194 5 -166 -7 -180 -6 -180 9 0 15 -7 16 -56 10 -36 -4 -66 -2 -85 5 -16 7 -37 9 -46 5 -16 -7 -15 -9 7 -15 14 -5 42 -8 63 -9 20 -1 37 -6 37 -12 0 -13 -165 -2 -194 13 -11 6 -48 8 -85 4 -36 -3 -91 -2 -121 3 -30 5 -46 9 -36 10 11 0 16 4 12 9 -8 8 -38 10 -184 16 -51 3 -98 9 -105 14 -7 5 -52 12 -102 15 -49 3 -103 8 -120 11 -16 3 -22 3 -12 0 20 -6 22 -20 5 -30 -6 -4 -14 -2 -16 4 -2 7 -11 12 -21 12 -9 0 -22 5 -27 10 -6 6 -42 11 -82 13 -39 1 -67 4 -62 5 6 2 10 8 10 12 0 11 -133 8 -141 -3 -3 -4 -19 -2 -35 4 -30 13 -39 14 -113 17 -32 2 -42 6 -38 16 4 10 -15 15 -86 20 -50 4 -94 11 -97 16 -3 6 -49 12 -101 14 -57 3 -119 13 -158 25 -43 14 -92 22 -146 22 -45 0 -88 5 -96 10 -9 7 -1 8 29 4 26 -4 42 -3 42 4 0 12 -23 16 -190 31 -75 7 -131 17 -140 25 -8 7 -62 19 -120 26 -58 6 -120 18 -137 25 -19 7 -48 10 -69 7 -31 -5 -36 -4 -31 9 6 16 -28 28 -80 28 -13 0 -35 7 -48 16 -13 8 -32 14 -42 13 -10 -1 -36 3 -58 9 -28 8 -41 8 -46 1 -5 -8 -8 -8 -13 0 -4 6 -2 11 3 11 25 0 9 17 -16 18 -61 2 -113 15 -113 27 0 9 -12 11 -43 8 -31 -4 -55 0 -83 14 -21 11 -68 26 -103 32 -55 11 -91 28 -91 44 0 2 12 4 28 5 36 1 559 43 717 57 28 3 104 9 170 15 140 12 639 64 835 86 186 21 511 77 661 113 201 49 324 124 286 174 -46 62 -436 101 -1257 127 -321 10 -824 20 -1955 40 -319 5 -645 12 -725 15 -236 8 -623 19 -652 18 -15 0 -26 3 -24 6 2 3 -36 4 -86 2 -50 -1 -94 1 -100 7 -6 6 21 8 76 5 53 -2 86 0 86 6 0 6 -6 8 -14 5 -8 -3 -17 -1 -21 5 -3 6 -15 11 -25 11 -10 0 -20 3 -22 8 -4 9 -128 62 -145 62 -7 0 -13 4 -13 10 0 5 -17 12 -37 16 -38 7 -63 24 -63 42 0 5 -16 13 -35 16 -19 3 -51 9 -70 12 -19 3 -51 21 -72 40 -20 19 -47 34 -59 34 -13 0 -26 5 -29 10 -3 6 -15 10 -27 10 -11 0 -29 11 -40 25 -15 19 -29 25 -60 25 -32 0 -41 4 -45 21 -5 18 -11 20 -39 16 -51 -8 -43 18 9 31 37 9 30 10 -53 7 -88 -3 -91 -3 -30 5 132 17 526 51 552 48 15 -3 25 -1 23 2 -4 7 50 12 735 65 1400 109 2024 213 2100 347 14 26 14 29 -10 53 -34 34 -113 60 -256 84 -317 54 -810 93 -1509 121 -143 5 -321 12 -395 15 -74 3 -466 17 -870 30 -821 28 -1393 51 -1640 65 -91 5 -187 11 -215 12 -35 1 -25 3 35 7 47 3 88 2 91 -2 10 -14 82 -3 87 13 4 12 2 13 -9 2 -7 -6 -27 -12 -43 -12 -22 0 -27 3 -17 9 9 6 0 8 -25 8 -22 -1 -52 2 -69 6 -22 6 -26 5 -15 -3 13 -8 12 -10 -3 -10 -10 0 -20 7 -23 15 -4 8 -12 15 -20 15 -8 0 -14 9 -14 20 0 11 -7 20 -15 20 -9 0 -18 7 -21 15 -4 10 -20 15 -45 15 -29 0 -37 3 -33 14 3 9 -5 21 -20 31 -14 10 -23 21 -20 26 3 5 -2 9 -11 9 -9 0 -31 11 -49 25 -18 14 -37 25 -42 25 -15 0 -64 24 -64 31 0 3 -12 5 -27 3 -17 -2 -20 -1 -8 2 37 11 -50 44 -104 39 -25 -2 -39 -2 -31 0 14 4 495 77 835 126 321 46 634 122 762 184 110 54 142 111 87 154 -60 48 -279 95 -579 126 -169 17 -794 59 -1167 77 -152 7 -244 16 -241 22 4 5 1 6 -6 1 -7 -4 -101 -3 -209 1 -123 5 -182 11 -157 15 l40 6 -37 2 c-20 0 -39 7 -41 14 -3 7 -6 5 -6 -5 -1 -16 -12 -18 -103 -16 -93 2 -96 2 -28 5 41 2 79 8 84 13 6 6 -11 7 -42 3 -38 -4 -52 -2 -52 7 0 8 8 10 21 7 14 -4 18 -2 12 4 -11 11 -53 14 -76 4 -13 -6 -16 -4 -11 9 4 11 -8 31 -37 61 -23 24 -46 51 -51 59 -5 9 -15 16 -23 16 -8 0 -22 11 -30 24 -9 14 -30 29 -46 35 -16 5 -29 15 -29 20 0 6 -7 11 -16 11 -10 0 -14 6 -10 15 4 11 -2 15 -24 15 -32 0 -37 9 -18 28 9 9 1 12 -38 13 -115 2 -5 9 356 23 628 26 1463 53 2120 71 1378 38 2032 55 2264 61 l280 6 27 28 c38 37 46 74 26 116 -14 28 -36 44 -139 95 -830 416 -1683 997 -2403 1638 -147 131 -532 499 -584 557 -19 22 -78 84 -130 139 -295 307 -663 753 -938 1136 -1098 1528 -1783 3267 -2024 5133 -25 194 -45 409 -65 676 -18 252 -26 1020 -13 1275 73 1416 370 2693 924 3975 81 187 345 723 448 910 963 1745 2370 3206 4077 4233 624 375 1401 740 2055 965 40 14 41 14 25 -1z m11087 -23334 c-153 -2 -256 -7 -252 -13 3 -5 20 -7 38 -4 17 3 46 1 62 -4 30 -9 29 -9 -22 -22 -29 -8 -53 -17 -53 -22 0 -4 -9 -8 -20 -8 -11 0 -20 -4 -20 -10 0 -5 -17 -13 -39 -16 -27 -4 -38 -11 -37 -23 1 -12 -8 -16 -33 -17 -19 -1 -39 -8 -46 -17 -7 -10 -17 -17 -24 -17 -6 0 -11 -7 -11 -15 0 -12 -13 -15 -59 -15 -33 0 -62 4 -65 9 -3 5 -25 6 -48 4 -85 -9 -459 41 -510 68 -48 26 -10 44 144 69 244 39 575 57 998 56 l255 -1 -258 -2z"/>
  <path d="M19040 10374 c-730 -27 -1185 -86 -1198 -156 -13 -67 345 -126 971 -158 257 -13 1096 -13 1352 0 377 20 740 59 873 94 234 63 47 141 -433 180 -372 31 -526 37 -1000 40 -264 2 -518 2 -565 0z"/>
  </g>
  </svg>